<svg width="37" height="37" viewBox="0 0 37 37" fill="none" xmlns="http://www.w3.org/2000/svg">
<g clip-path="url(#clip0_1_966)">
<path d="M17.8616 8.11794C20.6864 8.11794 23.3481 9.37016 25.2986 11.3277V11.3335C25.2986 10.3934 25.9311 9.68235 26.8052 9.68235H27.0272C28.4066 9.68235 28.683 10.9831 28.683 11.3936L28.6888 26.0028C28.5928 26.9602 29.6774 27.4551 30.2798 26.8399C32.6212 24.4315 35.4274 14.4461 28.8217 8.66485C22.6612 3.26863 14.3929 4.1601 9.99684 7.18947C5.32443 10.4177 2.33784 17.5483 5.23887 24.2499C8.40699 31.5563 17.4639 33.7358 22.8543 31.5621C25.5831 30.4602 26.8411 34.144 24.0048 35.3499C19.7301 37.1733 7.81731 36.9872 2.25343 27.3522C-1.50554 20.8436 -1.30666 9.39444 8.66715 3.46288C16.2903 -1.07771 26.3485 0.180286 32.4119 6.51076C38.7481 13.1349 38.3816 25.5288 32.1957 30.3468C29.3941 32.5379 25.2339 30.407 25.264 27.2146L25.2327 26.1739C23.2821 28.106 20.6864 29.2392 17.8616 29.2392C12.2735 29.2392 7.35365 24.3182 7.35365 18.7358C7.35365 13.0933 12.2735 8.12025 17.8616 8.12025V8.11794ZM24.8905 18.3323C24.6789 14.2426 21.6437 11.7798 17.9761 11.7798H17.8374C13.6101 11.7798 11.2618 15.1098 11.2618 18.8849C11.2618 23.118 14.0981 25.7912 17.82 25.7912C21.9744 25.7912 24.702 22.7514 24.9009 19.1555L24.8905 18.3323Z" fill="white"></path>
</g>
<defs>
<clipPath id="clip0_1_966">
<rect width="37" height="37" fill="white"></rect>
</clipPath>
</defs>
</svg>