<svg width="85" height="30" viewBox="0 0 85 30" fill="none" xmlns="http://www.w3.org/2000/svg">
<path d="M0.773438 0.0175781H10.1045C14.0967 0.0175781 17.1182 0.578125 19.1689 1.69922C21.2197 2.82031 22.2451 4.78906 22.2451 7.60547C22.2451 8.74023 22.0605 9.76562 21.6914 10.6816C21.3359 11.5977 20.8164 12.3496 20.1328 12.9375C19.4492 13.5254 18.6152 13.9082 17.6309 14.0859V14.291C18.6289 14.4961 19.5312 14.8516 20.3379 15.3574C21.1445 15.8496 21.7871 16.5742 22.2656 17.5312C22.7578 18.4746 23.0039 19.7324 23.0039 21.3047C23.0039 23.123 22.5596 24.6816 21.6709 25.9805C20.7822 27.2793 19.5107 28.2773 17.8564 28.9746C16.2158 29.6582 14.2607 30 11.9912 30H0.773438V0.0175781ZM7.13086 11.8916H10.8223C12.668 11.8916 13.9463 11.6045 14.6572 11.0303C15.3682 10.4424 15.7236 9.58105 15.7236 8.44629C15.7236 7.29785 15.2998 6.47754 14.4521 5.98535C13.6182 5.47949 12.292 5.22656 10.4736 5.22656H7.13086V11.8916ZM7.13086 16.9365V24.75H11.2734C13.1875 24.75 14.5205 24.3809 15.2725 23.6426C16.0244 22.9043 16.4004 21.9131 16.4004 20.6689C16.4004 19.9307 16.2363 19.2812 15.9082 18.7207C15.5801 18.1602 15.0264 17.7227 14.2471 17.4082C13.4814 17.0938 12.4219 16.9365 11.0684 16.9365H7.13086ZM53.8682 14.7217C53.8682 18.0986 53.2188 20.9219 51.9199 23.1914C50.6348 25.4473 48.7686 27.1494 46.3213 28.2979C43.874 29.4326 40.9277 30 37.4824 30H28.9922V0.0175781H38.4053C41.5498 0.0175781 44.2773 0.578125 46.5879 1.69922C48.8984 2.80664 50.6895 4.4541 51.9609 6.6416C53.2324 8.81543 53.8682 11.5088 53.8682 14.7217ZM47.2646 14.8857C47.2646 12.6709 46.9365 10.8525 46.2803 9.43066C45.6377 7.99512 44.6807 6.93555 43.4092 6.25195C42.1514 5.56836 40.5928 5.22656 38.7334 5.22656H35.3496V24.75H38.0771C41.1807 24.75 43.4844 23.9229 44.9883 22.2686C46.5059 20.6143 47.2646 18.1533 47.2646 14.8857ZM68.8184 0.0175781C71.5391 0.0175781 73.7812 0.345703 75.5449 1.00195C77.3223 1.6582 78.6416 2.64941 79.5029 3.97559C80.3643 5.30176 80.7949 6.97656 80.7949 9C80.7949 10.3672 80.5352 11.5635 80.0156 12.5889C79.4961 13.6143 78.8125 14.4824 77.9648 15.1934C77.1172 15.9043 76.2012 16.4854 75.2168 16.9365L84.0352 30H76.9805L69.8232 18.4951H66.4395V30H60.082V0.0175781H68.8184ZM68.3672 5.22656H66.4395V13.3271H68.4902C70.5957 13.3271 72.0996 12.9785 73.002 12.2812C73.918 11.5703 74.376 10.5312 74.376 9.16406C74.376 7.74219 73.8838 6.73047 72.8994 6.12891C71.9287 5.52734 70.418 5.22656 68.3672 5.22656Z" fill="#fff"/>
</svg>